<svg width="56" height="81" viewBox="0 0 56 81" fill="none" xmlns="http://www.w3.org/2000/svg">
<path fill-rule="evenodd" clip-rule="evenodd" d="M0 16.1055L5.17357 73.8246L27.5974 80.0411L50.0196 73.8246L55.1948 16.1055H0Z" fill="#1758A7"/>
<path fill-rule="evenodd" clip-rule="evenodd" d="M27.5967 20.7812V75.084L27.6471 75.0979L45.7932 70.0668L49.9819 20.7812H27.5967Z" fill="#379AD6"/>
<path fill-rule="evenodd" clip-rule="evenodd" d="M27.5332 60.3186L27.5215 60.3221L20.03 58.3561L19.5762 52.6934H12.6143L13.5219 63.6259L27.5971 67.9508V60.2996L27.5332 60.3186Z" fill="#E8E8E7"/>
<path fill-rule="evenodd" clip-rule="evenodd" d="M27.5967 42.0156V48.9607H27.6168L35.9369 48.9711L35.4041 58.0484L27.6168 60.3069L27.5967 60.3121V67.9426L27.6168 67.9495L27.6219 67.9512L41.7357 63.7077L43.5662 42.0156H27.5967Z" fill="#FBFBFA"/>
<path fill-rule="evenodd" clip-rule="evenodd" d="M11.6318 42.0157H27.5593L27.598 41.9984V35.0654L11.6318 42.0157Z" fill="#EEEEEE"/>
<path fill-rule="evenodd" clip-rule="evenodd" d="M28.5295 34.7285L27.5967 35.13V42.0146L44.062 34.7285H28.5295Z" fill="white"/>
<path fill-rule="evenodd" clip-rule="evenodd" d="M10.1514 27.7793L10.9851 34.7279H27.5983V27.7793H10.1514Z" fill="#E7E7E6"/>
<path fill-rule="evenodd" clip-rule="evenodd" d="M27.5967 34.7279L44.7142 27.7793H27.5967V34.7279ZM27.6017 34.7279H44.0334L44.7158 27.7793L27.6017 34.7279Z" fill="#F8F8F7"/>
<path fill-rule="evenodd" clip-rule="evenodd" d="M11.2197 11.0561H19.7381V7.62597H14.8705V4.19062H19.7381V0.431641H11.2197V11.0561ZM23.3805 4.19062C24.5201 5.36401 25.1151 5.92647 26.7623 7.62251C25.7992 7.62251 23.3805 7.62597 23.3805 7.62597V11.0561H31.9005V7.62597L28.4969 4.19062H31.9005V0.431641H23.3805V4.19062ZM43.9756 0.431641H35.4555V4.19062C36.5951 5.36401 37.1901 5.92647 38.839 7.62251C37.8759 7.62251 35.4555 7.62597 35.4555 7.62597V11.0561H43.9756V7.62597L40.5719 4.19062H43.9756V0.431641Z" fill="#1B1B1B"/>
</svg>
