<?xml version="1.0" encoding="UTF-8"?><svg id="Layer_1" xmlns="http://www.w3.org/2000/svg" width="83.03" height="74.3" xmlns:xlink="http://www.w3.org/1999/xlink" viewBox="0 0 83.03 74.3"><defs><style>.cls-1{fill:none;}.cls-2{fill:#231f20;}.cls-3{clip-path:url(#clippath-1);}.cls-4{clip-path:url(#clippath);}</style><clipPath id="clippath"><rect class="cls-1" width="83.03" height="74.3"/></clipPath><clipPath id="clippath-1"><rect class="cls-1" width="83.03" height="74.3"/></clipPath></defs><g class="cls-4"><g class="cls-3"><path class="cls-2" d="M44.54,67.47c-4.08-3.58-6.12-7.95-6.12-13.09h4.02c0,4.14,1.64,7.69,4.92,10.64s7.22,4.43,11.84,4.43c5.02,0,9.33-1.26,12.94-3.77,3.54-2.51,5.32-5.56,5.32-9.14,0-3.08-1.58-5.65-4.71-7.72-3.08-2.07-7.22-3.33-12.45-3.77-6.36-.5-11.44-2.2-15.25-5.09-3.81-2.89-5.72-6.43-5.72-10.64s1.94-7.69,5.82-10.64c3.88-2.95,8.56-4.43,14.05-4.43,5.89,0,10.94,1.54,15.15,4.61,4.15,3.08,6.22,6.78,6.22,11.11h-4.02c0-3.33-1.71-6.19-5.12-8.57-3.35-2.38-7.43-3.58-12.24-3.58-4.35,0-8.09,1.13-11.24,3.39-3.08,2.2-4.62,4.9-4.62,8.1s1.6,5.78,4.82,7.91c3.28,2.13,7.59,3.42,12.95,3.86,6.16.5,11.1,2.17,14.85,4.99,3.68,2.83,5.52,6.31,5.52,10.45,0,4.52-2.18,8.38-6.52,11.59-4.35,3.2-9.6,4.8-15.75,4.8-5.75,0-10.63-1.82-14.65-5.46h-.01Z"/><path class="cls-2" d="M9.19,51.62c-4.82-5.21-7.22-12.12-7.22-20.72s2.41-16.04,7.22-21.38C14.01,4.18,20.43,1.51,28.46,1.51s14.45,2.67,19.26,8.01c4.82,5.34,7.22,12.47,7.22,21.38s-2.41,15.51-7.22,20.72c-4.82,5.21-11.24,7.82-19.26,7.82s-14.45-2.61-19.26-7.82h0ZM44.81,49.08c4.08-4.52,6.12-10.58,6.12-18.18s-2.04-14.03-6.12-18.75-9.53-7.06-16.36-7.06-12.28,2.36-16.36,7.06c-4.08,4.71-6.12,10.96-6.12,18.75s2.04,13.66,6.12,18.18c4.08,4.58,9.53,6.88,16.36,6.88s12.27-2.29,16.36-6.88Z"/></g></g></svg>