<svg xmlns="http://www.w3.org/2000/svg" width="256" height="256" viewBox="0 0 100 100"><rect width="100" height="100" rx="50" fill="#e6e5d9"></rect><path fill="#2449ef" d="M30.56 79.92Q13.04 79.92 13.04 61.76L13.04 61.76L13.04 38.24Q13.04 29.92 17.72 25Q22.40 20.08 30.56 20.08L30.56 20.08Q38.72 20.08 43.40 25Q48.08 29.92 48.08 38.24L48.08 38.24L48.08 61.76Q48.08 79.92 30.56 79.92L30.56 79.92ZM30.56 69.12Q32.24 69.12 33.04 67.92Q33.84 66.72 33.84 64.64L33.84 64.64L33.84 36Q33.84 30.88 30.56 30.88L30.56 30.88Q27.28 30.88 27.28 36L27.28 36L27.28 64.64Q27.28 66.72 28.08 67.92Q28.88 69.12 30.56 69.12L30.56 69.12ZM69.36 79.92Q52.00 79.92 52.00 62.32L52.00 62.32L52.08 57.68L66.08 57.68L66.16 64.56Q66.16 66.64 66.96 67.72Q67.76 68.80 69.60 68.80L69.60 68.80Q72.40 68.80 72.40 64.24L72.40 64.24Q72.40 60.88 71.08 58.96Q69.76 57.04 66.88 54.88L66.88 54.88L59.44 49.12Q55.60 46.16 53.92 43Q52.24 39.84 52.24 34.08L52.24 34.08Q52.24 29.60 54.60 26.44Q56.96 23.28 60.88 21.68Q64.80 20.08 69.60 20.08L69.60 20.08Q86.64 20.08 86.64 37.04L86.64 37.04L86.64 38.16L72.16 38.16L72.16 35.92Q72.16 33.84 71.48 32.36Q70.80 30.88 69.20 30.88L69.20 30.88Q67.76 30.88 67.00 31.72Q66.24 32.56 66.24 34L66.24 34Q66.24 37.20 68.72 38.96L68.72 38.96L77.36 45.28Q82.00 48.72 84.48 52.76Q86.96 56.80 86.96 62.96L86.96 62.96Q86.96 71.12 82.32 75.52Q77.68 79.92 69.36 79.92L69.36 79.92Z"></path></svg>