<svg width="44" height="67" viewBox="0 0 44 67" fill="none" xmlns="http://www.w3.org/2000/svg">
<path d="M11 66.6502C17.072 66.6502 22 61.6737 22 55.5419V44.4336H11C4.92805 44.4339 0 49.4102 0 55.5419C0 61.6737 4.92805 66.6502 11 66.6502Z" fill="#0ACF83"/>
<path d="M0 33.3253C0 27.1934 4.92805 22.2168 11 22.2168H22V44.4334H11C4.92805 44.4337 0 39.4571 0 33.3253Z" fill="#A259FF"/>
<path d="M0 11.1085C0 4.97664 4.92805 0 11 0H22V22.2167H11C4.92805 22.2167 0 17.2403 0 11.1085Z" fill="#F24E1E"/>
<path d="M22 0H33C39.072 0 44 4.97658 44 11.1083C44 17.2401 39.072 22.2167 33 22.2167H22V0Z" fill="#FF7262"/>
</svg>
