<svg width="53" height="78" viewBox="0 0 53 78" fill="none" xmlns="http://www.w3.org/2000/svg">
<g clip-path="url(#clip0_12_325)">
<path d="M11.3729 3.87356H8.31751V0.431641H4.93262V10.8192H8.31751V7.3773H11.3729V10.8192H14.7578V0.431641H11.3729V3.87356ZM34.9773 0.431641H34.6777L32.5809 3.97661L30.484 0.431641H26.9694V10.8192H30.2444V5.63574L32.5709 9.3765L34.9573 5.53268V10.8192H38.2324V0.431641H34.9773ZM16.2256 3.92508H19.1711V10.8192H22.556V3.92508H25.5016V0.431641H16.2256V3.92508ZM43.3546 7.32578V0.431641H39.9697V10.8192H48.0675V7.32578H43.3546Z" fill="#010101"/>
<path d="M53 15.5283H26.5H0L4.96251 71.1348L26.5 77.4313L48.0375 71.1348L53 15.5283Z" fill="#E44F26"/>
<path d="M26.5 20.0527V72.7223L43.9437 67.6213L48.1873 20.0527H26.5Z" fill="#F1672A"/>
<path d="M43.1749 26.875H9.8252L11.6924 47.7017L11.7223 47.5677H34.5179L33.7691 56.3786L26.51 58.5427L19.1212 56.3477L18.6818 51.0199H11.9819L12.9405 61.6755L26.5 65.6429L40.0596 61.6755L41.9367 40.7663H17.7532L17.1342 33.7897H42.5558L43.1749 26.875Z" fill="white"/>
<path d="M26.5 26.875H9.8252L11.6824 47.7017L11.7223 47.5677H26.5V40.756H17.7532L17.1342 33.7897H26.5V26.875ZM18.6818 51.0199H11.9919L12.9405 61.6755L26.5 65.6429V58.5427L19.1212 56.3477L18.6818 51.0199Z" fill="#EBEBEB"/>
</g>
<defs>
<clipPath id="clip0_12_325">
<rect width="53" height="77" fill="white" transform="translate(0 0.431641)"/>
</clipPath>
</defs>
</svg>
