<svg width="58" height="57" viewBox="0 0 58 57" fill="none" xmlns="http://www.w3.org/2000/svg">
<g clip-path="url(#clip0_12_313)">
<path d="M2.41602 2.82422H55.5821V54.0383H2.41602V2.82422Z" fill="#261300"/>
<path d="M0 0.431641V56.4316H58V0.431641H0ZM2.41645 2.82461H55.5825V54.0387H2.41645V2.82461Z" fill="#FF7C00"/>
<path d="M20.1309 32.1411L18.2213 39.3211C18.1725 39.5122 18.1004 39.5605 17.8587 39.5605H14.3066C14.0649 39.5605 14.0161 39.4891 14.0649 39.2014L20.9283 15.4135C21.0491 14.983 21.1212 14.5997 21.17 13.4269C21.17 13.2589 21.2421 13.1875 21.363 13.1875H26.4376C26.6073 13.1875 26.6794 13.2358 26.7282 13.4269L34.4133 39.2497C34.462 39.4408 34.4133 39.5605 34.2203 39.5605H30.2091C30.0162 39.5605 29.8953 39.5122 29.8465 39.3452L27.8404 32.1422H20.1309V32.1411ZM26.849 28.2645C26.1725 25.608 24.5778 19.8162 23.9735 17.0169H23.9247C23.4168 19.8172 22.1359 24.5549 21.1212 28.2645H26.849ZM37.7236 14.9588C37.7236 13.4269 38.8114 12.5176 40.1888 12.5176C41.6626 12.5176 42.654 13.4983 42.654 14.9588C42.654 16.5381 41.6149 17.4001 40.1411 17.4001C38.6672 17.4001 37.7246 16.5381 37.7246 14.9588H37.7236ZM38.0141 20.3916C38.0141 20.2005 38.0862 20.1039 38.3046 20.1039H42.0984C42.2914 20.1039 42.3889 20.1753 42.3889 20.3916V39.2738C42.3889 39.4649 42.3402 39.5615 42.0984 39.5615H38.3523C38.1106 39.5615 38.0385 39.4418 38.0385 39.2507V20.3926H38.0141V20.3916Z" fill="#FF7C00"/>
</g>
<defs>
<clipPath id="clip0_12_313">
<rect width="58" height="56" fill="white" transform="translate(0 0.431641)"/>
</clipPath>
</defs>
</svg>
