<svg width="60" height="60" viewBox="0 0 60 60" fill="none" xmlns="http://www.w3.org/2000/svg">
<g clip-path="url(#clip0_230_246)">
<path d="M10.625 4.83609e-06H49.375C50.7707 -0.00134432 52.1529 0.279605 53.4426 0.826775C54.7322 1.37394 55.9041 2.17659 56.8909 3.18878C57.8778 4.20097 58.6604 5.40283 59.1939 6.72558C59.7274 8.04832 60.0013 9.46599 60 10.8974V49.1026C60.0013 50.534 59.7274 51.9517 59.1939 53.2744C58.6604 54.5972 57.8778 55.799 56.8909 56.8112C55.9041 57.8234 54.7322 58.6261 53.4426 59.1732C52.1529 59.7204 50.7707 60.0013 49.375 60H10.625C9.22934 60.0013 7.84712 59.7204 6.55744 59.1732C5.26776 58.6261 4.09595 57.8234 3.10906 56.8112C2.12218 55.799 1.3396 54.5972 0.806106 53.2744C0.272615 51.9517 -0.00131071 50.534 4.71519e-06 49.1026V10.8974C-0.00131071 9.46599 0.272615 8.04832 0.806106 6.72558C1.3396 5.40283 2.12218 4.20097 3.10906 3.18878C4.09595 2.17659 5.26776 1.37394 6.55744 0.826775C7.84712 0.279605 9.22934 -0.00134432 10.625 4.83609e-06V4.83609e-06Z" fill="#330000"/>
<path d="M29.0749 36.0004H19.7748L17.8748 42.026C17.8536 42.1359 17.7931 42.2336 17.7052 42.3C17.6173 42.3664 17.5084 42.3968 17.3998 42.385H12.6998C12.4248 42.385 12.3498 42.2312 12.4248 41.9235L20.4748 18.1542C20.5498 17.8978 20.6248 17.6158 20.7248 17.3081C20.8255 16.7586 20.8757 16.2006 20.8748 15.6414C20.8674 15.5772 20.8838 15.5125 20.9209 15.4602C20.958 15.4078 21.013 15.3719 21.0749 15.3594H27.5498C27.7498 15.3594 27.8498 15.4363 27.8748 15.5645L36.9998 41.9748C37.0748 42.2568 36.9998 42.385 36.7498 42.385H31.5248C31.4365 42.3937 31.3479 42.3703 31.2748 42.3187C31.2016 42.2671 31.1485 42.1907 31.1248 42.103L29.0749 36.0004ZM21.2248 30.7953H27.5749C27.4249 30.2568 27.2248 29.6158 26.9998 28.9491C26.7748 28.2825 26.5499 27.5132 26.3249 26.744C26.0999 25.9748 25.8498 25.1799 25.5998 24.385C25.3498 23.5901 25.1248 22.8466 24.9248 22.103C24.7248 21.3594 24.5498 20.7183 24.3748 20.103H24.3249C24.1002 21.2205 23.8164 22.3247 23.4748 23.4107C23.0998 24.6414 22.7249 25.9235 22.3249 27.2055C21.9749 28.5132 21.5998 29.7183 21.2248 30.7953V30.7953Z" fill="#FF9A00"/>
<path d="M42.4499 19.7436C42.0396 19.7528 41.6315 19.6782 41.2495 19.5242C40.8675 19.3701 40.5192 19.1396 40.2249 18.8462C39.6521 18.2038 39.3471 17.3572 39.3749 16.4872C39.3602 16.0633 39.4327 15.641 39.5878 15.2478C39.7428 14.8546 39.977 14.4993 40.2749 14.2052C40.8758 13.6226 41.6731 13.3011 42.4999 13.3077C43.4749 13.3077 44.2249 13.6154 44.7749 14.2052C45.3288 14.8269 45.6247 15.6454 45.5999 16.4872C45.6152 16.9204 45.5456 17.3524 45.3953 17.7576C45.245 18.1627 45.0171 18.5329 44.7249 18.8462C44.4303 19.1539 44.0748 19.3933 43.6824 19.5481C43.2899 19.7029 42.8696 19.7696 42.4499 19.7436V19.7436ZM39.6499 42V22.2564C39.6499 22 39.7499 21.8975 39.9749 21.8975H44.9249C45.1499 21.8975 45.2499 22.0257 45.2499 22.2564V42C45.2499 42.2821 45.1499 42.4103 44.9249 42.4103H40.0249C39.9724 42.4147 39.9195 42.4069 39.8703 42.3875C39.8212 42.3681 39.7769 42.3375 39.7408 42.298C39.7048 42.2586 39.6779 42.2113 39.6621 42.1597C39.6464 42.1081 39.6422 42.0535 39.6499 42V42Z" fill="#FF9A00"/>
</g>
<defs>
<clipPath id="clip0_230_246">
<rect width="60" height="60" fill="white"/>
</clipPath>
</defs>
</svg>
