<svg width="54" height="81" viewBox="0 0 54 81" fill="none" xmlns="http://www.w3.org/2000/svg">
<g clip-path="url(#clip0_12_358)">
<path d="M53.6494 16.1475H27.1494H0.649414L5.61431 73.7649L27.1494 80.2905L48.6757 73.7649L53.6494 16.1475Z" fill="#E6A329"/>
<path d="M41.0259 27.9121H14.204L12.3389 49.4833L12.3786 49.3465H35.1615L34.4163 58.4748L27.1498 60.7144L19.773 58.4418L19.3276 52.9158H12.6299L13.5867 63.9537L27.1498 68.0746L40.7128 63.9537L42.578 42.2976H18.4017L18.7103 35.0742H35.4922L35.7391 39.2093H42.4986L41.0259 27.9121Z" fill="white"/>
<path d="M27.1498 27.9121H14.1996L12.3389 49.4833L12.3786 49.3513H27.1498V42.2882H19.3365L19.6451 35.0648H27.1409L27.1498 27.9121ZM19.3276 52.9017H12.6299L13.5867 63.9772L27.1498 68.0651V60.7144L19.773 58.4418L19.3276 52.9017Z" fill="#EBEBEB"/>
<path d="M21.9909 7.65122H17.2773V11.2676H21.9909H24.5174H25.3684V0.512695H21.9909V7.65122Z" fill="#231F20"/>
<path d="M37.0222 0.564453H28.7988V4.33646C29.8967 5.51521 30.4744 6.0763 32.0661 7.77842H28.7988V11.2109H37.0222V7.77842L33.7373 4.33175H37.0222V0.564453Z" fill="#231F20"/>
</g>
<defs>
<clipPath id="clip0_12_358">
<rect width="53" height="79.778" fill="white" transform="translate(0.649414 0.512695)"/>
</clipPath>
</defs>
</svg>
