<?xml version="1.0" encoding="UTF-8"?>
<svg id="Layer_1" xmlns="http://www.w3.org/2000/svg" xmlns:xlink="http://www.w3.org/1999/xlink" version="1.1" viewBox="0 0 83 74.3">
  <!-- Generator: Adobe Illustrator 29.1.0, SVG Export Plug-In . SVG Version: 2.1.0 Build 142)  -->
  <defs>
    <style>
      .st0 {
        fill: none;
      }

      .st1 {
        fill: #231f20;
      }

      .st2 {
        clip-path: url(#clippath-1);
      }

      .st3 {
        clip-path: url(#clippath-3);
      }

      .st4 {
        clip-path: url(#clippath-2);
      }

      .st5 {
        clip-path: url(#clippath);
      }
    </style>
    <clipPath id="clippath">
      <rect class="st0" x="192.8" y="8.3" width="143.9" height="137.2"/>
    </clipPath>
    <clipPath id="clippath-1">
      <rect class="st0" x="192.8" y="8.3" width="143.9" height="137.2"/>
    </clipPath>
    <clipPath id="clippath-2">
      <rect class="st0" width="83" height="74.3"/>
    </clipPath>
    <clipPath id="clippath-3">
      <rect class="st0" width="83" height="74.3"/>
    </clipPath>
  </defs>
  <g class="st5">
    <g class="st2">
      <g>
        <path class="st1" d="M270,132.9c-7.1-6.6-10.6-14.7-10.6-24.2h7c0,7.7,2.8,14.2,8.5,19.6s12.5,8.2,20.5,8.2,16.2-2.3,22.4-7c6.1-4.6,9.2-10.3,9.2-16.9s-2.7-10.4-8.2-14.3c-5.3-3.8-12.5-6.1-21.6-7-11-.9-19.8-4.1-26.4-9.4-6.6-5.3-9.9-11.9-9.9-19.7s3.4-14.2,10.1-19.7c6.7-5.5,14.8-8.2,24.3-8.2s19,2.8,26.3,8.5c7.2,5.7,10.8,12.5,10.8,20.5h-7c0-6.1-3-11.4-8.9-15.8-5.8-4.4-12.9-6.6-21.2-6.6s-14,2.1-19.5,6.3c-5.3,4.1-8,9-8,15s2.8,10.7,8.3,14.6c5.7,3.9,13.2,6.3,22.4,7.1,10.7.9,19.2,4,25.7,9.2,6.4,5.2,9.6,11.7,9.6,19.3s-3.8,15.5-11.3,21.4c-7.5,5.9-16.6,8.9-27.3,8.9s-18.4-3.4-25.4-10.1h0Z"/>
        <path class="st1" d="M208.7,103.7c-8.4-9.6-12.5-22.4-12.5-38.3s4.2-29.6,12.5-39.5c8.4-9.9,19.5-14.8,33.4-14.8s25,4.9,33.4,14.8c8.3,9.9,12.5,23,12.5,39.5s-4.2,28.6-12.5,38.3c-8.3,9.6-19.5,14.4-33.4,14.4s-25-4.8-33.4-14.4h0ZM270.4,99c7.1-8.3,10.6-19.5,10.6-33.6s-3.5-25.9-10.6-34.6-16.5-13-28.3-13-21.3,4.4-28.4,13c-7.1,8.7-10.6,20.2-10.6,34.6s3.5,25.2,10.6,33.6c7.1,8.5,16.5,12.7,28.3,12.7s21.3-4.2,28.3-12.7Z"/>
      </g>
    </g>
  </g>
  <g class="st4">
    <g class="st3">
      <g>
        <path class="st1" d="M44.5,67.5c-4.1-3.6-6.1-7.9-6.1-13.1h4c0,4.1,1.6,7.7,4.9,10.6s7.2,4.4,11.8,4.4,9.3-1.3,12.9-3.8c3.5-2.5,5.3-5.6,5.3-9.1s-1.6-5.6-4.7-7.7c-3.1-2.1-7.2-3.3-12.4-3.8-6.4-.5-11.4-2.2-15.2-5.1-3.8-2.9-5.7-6.4-5.7-10.6s1.9-7.7,5.8-10.6c3.9-3,8.6-4.4,14-4.4s10.9,1.5,15.2,4.6c4.1,3.1,6.2,6.8,6.2,11.1h-4c0-3.3-1.7-6.2-5.1-8.6-3.3-2.4-7.4-3.6-12.2-3.6s-8.1,1.1-11.2,3.4c-3.1,2.2-4.6,4.9-4.6,8.1s1.6,5.8,4.8,7.9c3.3,2.1,7.6,3.4,12.9,3.9,6.2.5,11.1,2.2,14.9,5,3.7,2.8,5.5,6.3,5.5,10.5s-2.2,8.4-6.5,11.6c-4.4,3.2-9.6,4.8-15.8,4.8s-10.6-1.8-14.6-5.5h0Z"/>
        <path class="st1" d="M9.2,51.6c-4.8-5.2-7.2-12.1-7.2-20.7s2.4-16,7.2-21.4C14,4.2,20.4,1.5,28.5,1.5s14.4,2.7,19.3,8c4.8,5.3,7.2,12.5,7.2,21.4s-2.4,15.5-7.2,20.7c-4.8,5.2-11.2,7.8-19.3,7.8s-14.4-2.6-19.3-7.8h0ZM44.8,49.1c4.1-4.5,6.1-10.6,6.1-18.2s-2-14-6.1-18.7-9.5-7.1-16.4-7.1-12.3,2.4-16.4,7.1c-4.1,4.7-6.1,11-6.1,18.7s2,13.7,6.1,18.2c4.1,4.6,9.5,6.9,16.4,6.9s12.3-2.3,16.4-6.9Z"/>
      </g>
    </g>
  </g>
</svg>