<?xml version="1.0" encoding="UTF-8"?><svg id="Layer_1" xmlns="http://www.w3.org/2000/svg" width="164.35" height="152.88" xmlns:xlink="http://www.w3.org/1999/xlink" viewBox="0 0 164.35 152.88"><defs><style>.cls-1{fill:none;}.cls-2{fill:#231f20;}.cls-3{clip-path:url(#clippath-1);}.cls-4{clip-path:url(#clippath);}</style><clipPath id="clippath"><rect class="cls-1" x="8.33" y="8.35" width="143.91" height="137.19"/></clipPath><clipPath id="clippath-1"><rect class="cls-1" x="8.33" y="8.35" width="143.91" height="137.19"/></clipPath></defs><g class="cls-4"><g class="cls-3"><path class="cls-2" d="M85.53,132.92c-7.07-6.61-10.61-14.67-10.61-24.17h6.96c0,7.65,2.84,14.2,8.52,19.65,5.68,5.45,12.52,8.17,20.52,8.17,8.7,0,16.17-2.32,22.43-6.96,6.14-4.64,9.22-10.26,9.22-16.87,0-5.68-2.73-10.43-8.17-14.26-5.33-3.83-12.52-6.14-21.57-6.96-11.02-.93-19.83-4.06-26.43-9.39-6.61-5.33-9.91-11.88-9.91-19.65s3.36-14.2,10.09-19.65c6.72-5.45,14.84-8.17,24.35-8.17,10.2,0,18.96,2.84,26.26,8.52,7.19,5.68,10.78,12.52,10.78,20.52h-6.96c0-6.14-2.96-11.42-8.87-15.83-5.8-4.4-12.87-6.61-21.22-6.61-7.54,0-14.03,2.09-19.48,6.26-5.33,4.06-8,9.04-8,14.96s2.78,10.67,8.35,14.61c5.68,3.94,13.16,6.32,22.44,7.13,10.67.93,19.24,4,25.74,9.22,6.38,5.22,9.57,11.65,9.57,19.3,0,8.35-3.77,15.48-11.3,21.39-7.54,5.91-16.64,8.87-27.3,8.87-9.97,0-18.43-3.36-25.39-10.09h-.02Z"/><path class="cls-2" d="M24.26,103.66c-8.35-9.62-12.52-22.38-12.52-38.26s4.17-29.62,12.52-39.48c8.35-9.85,19.48-14.78,33.39-14.78s25.04,4.93,33.39,14.78c8.35,9.86,12.52,23.02,12.52,39.48s-4.17,28.64-12.52,38.26c-8.35,9.62-19.48,14.43-33.39,14.43s-25.04-4.81-33.39-14.43h0ZM86,98.96c7.07-8.35,10.61-19.54,10.61-33.57s-3.54-25.91-10.61-34.61c-7.07-8.7-16.52-13.04-28.35-13.04s-21.28,4.35-28.35,13.04c-7.07,8.7-10.61,20.23-10.61,34.61s3.54,25.22,10.61,33.57c7.07,8.46,16.52,12.7,28.35,12.7s21.27-4.23,28.35-12.7Z"/></g></g></svg>