<svg width="57" height="59" viewBox="0 0 57 59" fill="none" xmlns="http://www.w3.org/2000/svg">
<g clip-path="url(#clip0_12_318)">
<path d="M2.375 2.54199H54.6244V56.1075H2.375V2.54199Z" fill="#2A0034"/>
<path d="M0 0.0390625V58.6102H57V0.0390625H0ZM2.37478 2.5419H54.6242V56.1074H2.37478V2.5419ZM14.7958 13.7558C14.7958 13.5801 14.8437 13.4549 15.0333 13.4549C16.5537 13.3802 18.7857 13.3297 21.1375 13.3297C27.7159 13.3297 30.5898 17.1339 30.5898 22.0155C30.5898 28.373 26.2195 31.1021 20.852 31.1021C19.9496 31.1021 19.6412 31.0516 18.9993 31.0516V40.6632C18.9993 40.8631 18.9284 40.9641 18.7138 40.9641H15.0563C14.8666 40.9641 14.7708 40.8894 14.7708 40.6632C14.7708 40.6632 14.7708 13.7558 14.7947 13.7558H14.7958ZM19.0003 27.0475C19.5464 27.098 19.9736 27.098 20.9239 27.098C23.703 27.098 26.3154 26.0723 26.3154 22.0923C26.3154 18.913 24.4627 17.3118 21.2803 17.3118C20.33 17.3118 19.4276 17.3623 19.0003 17.3865V27.0486V27.0475ZM34.2004 24.7698C34.2004 24.4689 34.2004 23.7441 34.0816 22.3416C34.0816 22.1418 34.1056 22.0912 34.2713 22.0166C35.7197 21.3906 39.1167 20.2891 42.9639 20.2891C43.1535 20.2891 43.2494 20.3396 43.2494 20.5395V24.1691C43.2494 24.3689 43.1785 24.4195 42.9878 24.4195C41.4915 24.3448 39.3303 24.5447 38.4988 24.9203V40.6895C38.4988 40.8894 38.4279 40.9905 38.2133 40.9905H34.4849C34.2952 40.9905 34.1994 40.9158 34.1994 40.6895V24.7698H34.2004Z" fill="#EA77FF"/>
</g>
<defs>
<clipPath id="clip0_12_318">
<rect width="57" height="58.5712" fill="white" transform="translate(0 0.0390625)"/>
</clipPath>
</defs>
</svg>
